<svg width="80" height="54" viewBox="0 0 80 54" fill="none" xmlns="http://www.w3.org/2000/svg">
<path d="M33.3196 26.1939C32.2659 26.1939 31.236 25.8815 30.3598 25.2962C29.4837 24.7109 28.8007 23.8791 28.3973 22.9057C27.9938 21.9324 27.888 20.8613 28.0932 19.8278C28.2984 18.7943 28.8054 17.8449 29.5501 17.0995C30.2948 16.3541 31.2438 15.8463 32.277 15.6401C33.3103 15.4339 34.3815 15.5388 35.3552 15.9413C36.3289 16.3438 37.1615 17.026 37.7476 17.9016C38.3336 18.7772 38.647 19.8069 38.648 20.8605C38.648 22.2742 38.0867 23.63 37.0876 24.63C36.0885 25.6301 34.7332 26.1925 33.3196 26.1939ZM33.3196 16.2714C32.4048 16.2714 31.5106 16.5431 30.7504 17.0519C29.9902 17.5608 29.3982 18.2839 29.0495 19.1297C28.7008 19.9754 28.6111 20.9056 28.7917 21.8024C28.9724 22.6992 29.4152 23.5221 30.0642 24.1669C30.7131 24.8117 31.5389 25.2492 32.4369 25.4241C33.3348 25.5989 34.2644 25.5032 35.1079 25.149C35.9514 24.7948 36.6707 24.1982 37.1746 23.4347C37.6785 22.6712 37.9444 21.7753 37.9385 20.8605C37.9359 19.6368 37.4482 18.464 36.5825 17.5991C35.7167 16.7343 34.5433 16.2479 33.3196 16.2466V16.2714ZM33.3196 24.7055C32.5733 24.7005 31.8452 24.4754 31.2263 24.0583C30.6075 23.6412 30.1256 23.0507 29.8409 22.3609C29.5563 21.671 29.4816 20.9125 29.6263 20.1804C29.771 19.4483 30.1285 18.7751 30.6542 18.2454C31.1798 17.7157 31.8501 17.3529 32.5811 17.2025C33.3121 17.0522 34.0711 17.1209 34.7632 17.4002C35.4552 17.6795 36.0495 18.1568 36.4713 18.7724C36.8932 19.3879 37.124 20.1143 37.1348 20.8605C37.1354 21.3608 37.0371 21.8563 36.8453 22.3183C36.6536 22.7804 36.3723 23.1999 36.0176 23.5528C35.6629 23.9056 35.2419 24.1847 34.7789 24.374C34.3158 24.5634 33.8198 24.6592 33.3196 24.6559V24.7055ZM33.3196 17.601C32.662 17.6021 32.0196 17.7987 31.4742 18.1659C30.9287 18.5332 30.5048 19.0544 30.2564 19.6632C30.008 20.2721 29.9464 20.941 30.0793 21.585C30.2122 22.229 30.5337 22.8189 31.0029 23.2796C31.472 23.7404 32.0676 24.0511 32.7139 24.1724C33.3602 24.2936 34.028 24.2199 34.6322 23.9605C35.2365 23.7011 35.7499 23.2679 36.1072 22.7159C36.4645 22.1638 36.6495 21.518 36.6387 20.8605C36.636 19.982 36.2852 19.1403 35.663 18.52C35.0409 17.8997 34.1981 17.5514 33.3196 17.5514V17.601Z" fill="url(#paint0_linear_898_3734)"/>
<path d="M35.6465 13.6567C34.592 13.6597 33.5604 13.3497 32.6822 12.766C31.804 12.1823 31.1187 11.3511 30.7131 10.3778C30.3075 9.4044 30.1999 8.33258 30.4038 7.298C30.6077 6.26341 31.114 5.3126 31.8586 4.56592C32.6032 3.81924 33.5526 3.31029 34.5866 3.10348C35.6206 2.89667 36.6927 3.00132 37.6672 3.40417C38.6417 3.80702 39.4748 4.48996 40.0609 5.36653C40.6471 6.2431 40.96 7.27387 40.96 8.32836C40.9587 9.73855 40.3989 11.0908 39.4031 12.0894C38.4074 13.0879 37.0567 13.6515 35.6465 13.6567ZM35.6465 3.73425C34.7329 3.73425 33.8399 4.00514 33.0804 4.51267C32.3208 5.02021 31.7288 5.74158 31.3792 6.58558C31.0296 7.42958 30.9381 8.35829 31.1163 9.25427C31.2945 10.1503 31.7344 10.9733 32.3804 11.6192C33.0264 12.2652 33.8494 12.7051 34.7454 12.8833C35.6414 13.0616 36.5701 12.9701 37.4141 12.6205C38.2581 12.2709 38.9794 11.6789 39.487 10.9193C39.9945 10.1597 40.2654 9.2667 40.2654 8.35316C40.2674 7.74488 40.1494 7.14217 39.9183 6.5795C39.6872 6.01683 39.3474 5.50524 38.9184 5.07396C38.4895 4.64269 37.9797 4.30019 37.4183 4.06606C36.8568 3.83192 36.2548 3.71074 35.6465 3.70944V3.73425ZM35.6465 12.1386C34.8966 12.1386 34.1636 11.9162 33.5401 11.4994C32.9167 11.0827 32.4309 10.4905 32.1441 9.79757C31.8574 9.10468 31.7826 8.34231 31.9293 7.60691C32.0759 6.87151 32.4374 6.19613 32.968 5.66624C33.4986 5.13634 34.1745 4.77573 34.9101 4.63004C35.6457 4.48435 36.4079 4.56012 37.1004 4.84776C37.793 5.13541 38.3846 5.62201 38.8005 6.24598C39.2164 6.86996 39.4379 7.60328 39.4369 8.35316C39.429 9.35327 39.0262 10.3097 38.3162 11.0142C37.6062 11.7186 36.6466 12.1138 35.6465 12.1138V12.1386ZM35.6465 5.01425C34.991 5.01425 34.3503 5.20862 33.8053 5.57277C33.2603 5.93693 32.8355 6.45453 32.5846 7.0601C32.3338 7.66568 32.2682 8.33203 32.3961 8.97491C32.5239 9.61778 32.8396 10.2083 33.3031 10.6718C33.7665 11.1353 34.3571 11.4509 34.9999 11.5788C35.6428 11.7067 36.3092 11.641 36.9147 11.3902C37.5203 11.1394 38.0379 10.7146 38.4021 10.1696C38.7662 9.62457 38.9606 8.98383 38.9606 8.32836C38.9593 7.4498 38.6097 6.60761 37.9885 5.98638C37.3672 5.36514 36.525 5.01556 35.6465 5.01425Z" fill="url(#paint1_linear_898_3734)"/>
<path d="M46.5613 23.083C45.5068 23.0859 44.4752 22.7759 43.5969 22.1923C42.7187 21.6086 42.0335 20.7774 41.6279 19.804C41.2223 18.8307 41.1147 17.7588 41.3186 16.7243C41.5225 15.6897 42.0288 14.7389 42.7734 13.9922C43.518 13.2455 44.4674 12.7366 45.5014 12.5297C46.5354 12.3229 47.6075 12.4276 48.582 12.8304C49.5565 13.2333 50.3896 13.9162 50.9757 14.7928C51.5619 15.6694 51.8748 16.7001 51.8748 17.7546C51.8735 19.1648 51.3137 20.5171 50.3179 21.5157C49.3222 22.5142 47.9715 23.0778 46.5613 23.083ZM46.5613 13.1605C45.6477 13.1605 44.7547 13.4314 43.9951 13.9389C43.2356 14.4465 42.6436 15.1679 42.294 16.0118C41.9444 16.8558 41.8529 17.7846 42.0311 18.6805C42.2093 19.5765 42.6492 20.3995 43.2952 21.0455C43.9412 21.6915 44.7642 22.1314 45.6602 22.3096C46.5562 22.4878 47.4849 22.3963 48.3289 22.0468C49.1729 21.6972 49.8942 21.1051 50.4018 20.3456C50.9093 19.586 51.1802 18.693 51.1802 17.7794C51.1822 17.1711 51.0642 16.5684 50.8331 16.0058C50.6019 15.4431 50.2622 14.9315 49.8332 14.5002C49.4042 14.069 48.8945 13.7265 48.3331 13.4923C47.7716 13.2582 47.1696 13.137 46.5613 13.1357V13.1605ZM46.5613 21.5649C45.8114 21.5649 45.0784 21.3424 44.4549 20.9257C43.8315 20.509 43.3457 19.9167 43.0589 19.2238C42.7722 18.5309 42.6974 17.7686 42.8441 17.0332C42.9907 16.2978 43.3522 15.6224 43.8828 15.0925C44.4134 14.5626 45.0893 14.202 45.8249 14.0563C46.5604 13.9106 47.3227 13.9864 48.0152 14.274C48.7078 14.5617 49.2994 15.0483 49.7153 15.6723C50.1312 16.2962 50.3526 17.0296 50.3517 17.7794C50.3438 18.7795 49.941 19.736 49.231 20.4404C48.521 21.1448 47.5614 21.5401 46.5613 21.5401V21.5649ZM46.5613 14.4653C45.9058 14.4653 45.2651 14.6597 44.7201 15.0238C44.1751 15.388 43.7503 15.9056 43.4994 16.5112C43.2486 17.1168 43.183 17.7831 43.3108 18.426C43.4387 19.0689 43.7544 19.6594 44.2178 20.1229C44.6813 20.5863 45.2719 20.902 45.9147 21.0299C46.5576 21.1577 47.224 21.0921 47.8295 20.8413C48.4351 20.5904 48.9527 20.1657 49.3169 19.6207C49.681 19.0757 49.8754 18.4349 49.8754 17.7794C49.878 17.3423 49.7942 16.909 49.6289 16.5043C49.4636 16.0997 49.22 15.7317 48.912 15.4214C48.6041 15.1112 48.2379 14.8648 47.8345 14.6965C47.4311 14.5281 46.9984 14.4412 46.5613 14.4405V14.4653Z" fill="url(#paint2_linear_898_3734)"/>
<path fill-rule="evenodd" clip-rule="evenodd" d="M56.0323 42.5512V47.2099C56.0284 48.2139 55.6278 49.1757 54.9178 49.8857C54.2078 50.5957 53.246 50.9963 52.2419 51.0002H26.5377C25.5336 50.9963 24.5718 50.5957 23.8618 49.8857C23.1518 49.1757 22.7512 48.2139 22.7473 47.2099V28.248C22.7499 27.2431 23.15 26.28 23.8601 25.5689C24.5702 24.8578 25.5328 24.4566 26.5377 24.4526H52.2419C53.2468 24.4566 54.2094 24.8578 54.9195 25.5689C55.6297 26.28 56.0297 27.2431 56.0323 28.248V32.9066H53.9634V28.6002C53.9621 28.048 53.7422 27.5188 53.3517 27.1283C52.9612 26.7378 52.432 26.5178 51.8797 26.5165H26.9048C26.3521 26.5178 25.8224 26.7376 25.4311 27.128C25.0398 27.5183 24.8188 28.0475 24.8162 28.6002V46.8526C24.8188 47.4053 25.0398 47.9346 25.4311 48.3249C25.8224 48.7153 26.3521 48.9351 26.9048 48.9364H51.8797C52.432 48.9351 52.9612 48.7151 53.3517 48.3246C53.7422 47.9341 53.9621 47.4049 53.9634 46.8526V42.5512H56.0323ZM57.2528 34.6133V40.8297C57.2514 41.1582 57.1204 41.473 56.888 41.7053C56.6557 41.9376 56.341 42.0687 56.0124 42.07H44.4875C44.1589 42.0687 43.8442 41.9376 43.6119 41.7053C43.3796 41.473 43.2485 41.1582 43.2472 40.8297V34.6232C43.2485 34.2946 43.3796 33.9799 43.6119 33.7476C43.8442 33.5153 44.1589 33.3842 44.4875 33.3829H56.0124C56.341 33.3842 56.6557 33.5153 56.888 33.7476C57.1204 33.9799 57.2514 34.2946 57.2528 34.6232V34.6133ZM50.0838 37.7289C50.0838 37.1706 49.9182 36.6248 49.608 36.1606C49.2978 35.6963 48.8569 35.3345 48.3411 35.1209C47.8253 34.9072 47.2577 34.8513 46.7101 34.9602C46.1625 35.0691 45.6595 35.338 45.2647 35.7328C44.8699 36.1276 44.601 36.6306 44.4921 37.1782C44.3832 37.7258 44.4391 38.2934 44.6527 38.8092C44.8664 39.325 45.2282 39.7659 45.6925 40.0761C46.1567 40.3863 46.7025 40.5519 47.2608 40.5519C48.0087 40.5493 48.7252 40.251 49.254 39.7222C49.7829 39.1933 50.0811 38.4768 50.0838 37.7289ZM43.8475 42.5512C43.4825 42.5499 43.133 42.404 42.8754 42.1455C42.6178 41.887 42.4732 41.537 42.4732 41.172V34.2809C42.4745 33.9168 42.6197 33.568 42.8772 33.3105C43.1346 33.0531 43.4834 32.9079 43.8475 32.9066H53.507V28.6697C53.5057 28.2161 53.325 27.7815 53.0042 27.4608C52.6835 27.1401 52.2489 26.9594 51.7954 26.9581H26.9892C26.5356 26.9594 26.101 27.1401 25.7803 27.4608C25.4596 27.7815 25.2789 28.2161 25.2775 28.6697V46.7881C25.2789 47.2417 25.4596 47.6763 25.7803 47.997C26.101 48.3177 26.5356 48.4985 26.9892 48.4998H51.7954C52.2489 48.4985 52.6835 48.3177 53.0042 47.997C53.325 47.6763 53.5057 47.2417 53.507 46.7881V42.5512H43.8475Z" fill="url(#paint3_linear_898_3734)"/>
<defs>
<linearGradient id="paint0_linear_898_3734" x1="33.3196" y1="15.5371" x2="33.3196" y2="26.1939" gradientUnits="userSpaceOnUse">
<stop stop-color="white"/>
<stop offset="0.87" stop-color="#EB2B3E"/>
</linearGradient>
<linearGradient id="paint1_linear_898_3734" x1="35.6316" y1="2.99998" x2="35.6316" y2="13.6567" gradientUnits="userSpaceOnUse">
<stop stop-color="white"/>
<stop offset="0.87" stop-color="#EB2B3E"/>
</linearGradient>
<linearGradient id="paint2_linear_898_3734" x1="46.5464" y1="12.4263" x2="46.5464" y2="23.083" gradientUnits="userSpaceOnUse">
<stop stop-color="white"/>
<stop offset="0.87" stop-color="#EB2B3E"/>
</linearGradient>
<linearGradient id="paint3_linear_898_3734" x1="39.9976" y1="22.0365" x2="39.9976" y2="52.1264" gradientUnits="userSpaceOnUse">
<stop stop-color="white"/>
<stop offset="0.87" stop-color="#EB2B3E"/>
</linearGradient>
</defs>
</svg>
