<svg width="68" height="54" viewBox="0 0 68 54" fill="none" xmlns="http://www.w3.org/2000/svg">
<path d="M40.7227 31.1465C40.5453 30.9933 40.3187 30.909 40.0843 30.909C39.8499 30.909 39.6233 30.9933 39.4459 31.1465C37.9091 32.4136 35.9793 33.1066 33.9875 33.1066C31.9957 33.1066 30.0659 32.4136 28.5291 31.1465C28.3517 30.9933 28.1251 30.909 27.8907 30.909C27.6563 30.909 27.4297 30.9933 27.2523 31.1465C27.048 31.3252 22.2407 35.6154 22.145 44.0041C22.1438 44.1353 22.1686 44.2655 22.2179 44.3871C22.2672 44.5087 22.3401 44.6194 22.4323 44.7127C22.5233 44.8045 22.6317 44.8773 22.7512 44.9266C22.8707 44.9759 22.9989 45.0009 23.1281 45H44.8724C45.0016 45.0002 45.1295 44.9749 45.2489 44.9256C45.3683 44.8763 45.4769 44.804 45.5683 44.7127C45.7522 44.5226 45.8552 44.2686 45.8556 44.0041C45.7343 35.5962 40.927 31.3444 40.7227 31.1465ZM21.8769 45H2.62876C2.49807 45.0018 2.36838 44.9771 2.24746 44.9275C2.12654 44.8779 2.01689 44.8044 1.92507 44.7114C1.83325 44.6184 1.76117 44.5078 1.71315 44.3863C1.66513 44.2647 1.64215 44.1347 1.6456 44.0041C1.7669 35.5962 6.57414 31.3444 6.75289 31.1465C6.9303 30.9933 7.15689 30.909 7.3913 30.909C7.62571 30.909 7.8523 30.9933 8.02971 31.1465C9.55253 32.438 11.4916 33.1342 13.4881 33.1064C15.4841 33.1308 17.422 32.4349 18.9465 31.1465C19.124 30.9933 19.3505 30.909 19.585 30.909C19.8194 30.909 20.046 30.9933 20.2234 31.1465C21.4028 32.2776 22.3847 33.5983 23.1281 35.0536C21.6801 37.8113 20.916 40.8766 20.9001 43.9913C20.8967 44.1214 20.9194 44.2509 20.9671 44.372C21.0147 44.4931 21.0862 44.6034 21.1773 44.6963C21.2685 44.7893 21.3774 44.8629 21.4975 44.9129C21.6177 44.9628 21.7467 44.9881 21.8769 44.9872V45ZM66.3549 44.0041C66.3545 44.2686 66.2516 44.5226 66.0677 44.7127C65.9767 44.8045 65.8682 44.8773 65.7487 44.9266C65.6292 44.9759 65.5011 45.0009 65.3718 45H46.1173C46.3801 45.0007 46.6326 44.8974 46.8196 44.7127C47.0017 44.522 47.1025 44.2678 47.1005 44.0041C47.0845 40.8894 46.3204 37.8241 44.8724 35.0663C45.6159 33.611 46.5977 32.2904 47.7772 31.1592C47.9546 31.006 48.1812 30.9217 48.4156 30.9217C48.65 30.9217 48.8766 31.006 49.054 31.1592C50.5908 32.4264 52.5206 33.1194 54.5124 33.1194C56.5042 33.1194 58.434 32.4264 59.9708 31.1592C60.1483 31.006 60.3748 30.9217 60.6092 30.9217C60.8437 30.9217 61.0703 31.006 61.2477 31.1592C61.4264 31.3444 66.2337 35.5962 66.3549 44.0041ZM13.7754 11.9878C11.921 11.984 10.1072 12.5304 8.56347 13.5579C7.01976 14.5854 5.81556 16.0477 5.10329 17.7599C4.39101 19.472 4.20268 21.357 4.56213 23.1762C4.92158 24.9955 5.81266 26.6672 7.12257 27.9798C8.43248 29.2924 10.1024 30.1868 11.9208 30.55C13.7393 30.9132 15.6247 30.7287 17.3383 30.0199C19.0519 29.3112 20.5167 28.11 21.5473 26.5684C22.578 25.0268 23.1281 23.214 23.1281 21.3596C23.1281 18.8774 22.1434 16.4965 20.39 14.7395C18.6365 12.9825 16.2577 11.9928 13.7754 11.9878ZM13.7754 28.7907C12.3092 28.7958 10.8744 28.3659 9.65262 27.5554C8.4308 26.7448 7.47681 25.5902 6.91134 24.2374C6.34588 22.8846 6.19433 21.3945 6.47589 19.9555C6.75744 18.5166 7.45944 17.1935 8.49308 16.1536C9.52672 15.1137 10.8456 14.4038 12.2828 14.1135C13.72 13.8233 15.211 13.9659 16.5671 14.5232C17.9233 15.0805 19.0837 16.0275 19.9016 17.2444C20.7195 18.4613 21.158 19.8934 21.1618 21.3596C21.1652 22.3327 20.9767 23.2969 20.6073 24.1971C20.2378 25.0972 19.6946 25.9158 19.0086 26.6059C18.3226 27.296 17.5074 27.8442 16.6094 28.2191C15.7115 28.594 14.7485 28.7882 13.7754 28.7907ZM54.2443 11.9878C52.391 11.989 50.5797 12.5398 49.0393 13.5703C47.4989 14.6009 46.2987 16.065 45.5904 17.7776C44.882 19.4902 44.6973 21.3744 45.0597 23.1919C45.422 25.0095 46.3151 26.6788 47.626 27.9888C48.937 29.2989 50.6069 30.1908 52.4247 30.5519C54.2425 30.913 56.1265 30.727 57.8386 30.0175C59.5507 29.308 61.014 28.1068 62.0435 26.5657C63.0731 25.0247 63.6226 23.213 63.6226 21.3596C63.6226 20.1284 63.3799 18.9092 62.9085 17.7717C62.4372 16.6342 61.7463 15.6008 60.8753 14.7305C60.0044 13.8601 58.9705 13.1699 57.8327 12.6993C56.6949 12.2287 55.4756 11.9869 54.2443 11.9878ZM54.2443 28.7716C52.7783 28.7716 51.3453 28.3369 50.1264 27.5225C48.9075 26.708 47.9575 25.5504 47.3965 24.1961C46.8355 22.8417 46.6888 21.3514 46.9748 19.9136C47.2607 18.4759 47.9667 17.1552 49.0032 16.1186C50.0398 15.082 51.3605 14.3761 52.7983 14.0901C54.2361 13.8041 55.7264 13.9509 57.0807 14.5119C58.4351 15.0729 59.5927 16.0229 60.4071 17.2418C61.2215 18.4607 61.6562 19.8937 61.6562 21.3596C61.6596 22.3348 61.4703 23.3011 61.0993 24.2029C60.7282 25.1048 60.1827 25.9245 59.494 26.6149C58.8053 27.3054 57.987 27.8531 57.0862 28.2264C56.1853 28.5998 55.2195 28.7916 54.2443 28.7907V28.7716ZM34.0003 9C32.1449 8.99874 30.3308 9.54785 28.7876 10.5779C27.2444 11.6079 26.0413 13.0725 25.3307 14.7864C24.6201 16.5003 24.4339 18.3865 24.7955 20.2063C25.1572 22.0261 26.0505 23.6977 27.3625 25.0097C28.6744 26.3216 30.3461 27.215 32.1659 27.5766C33.9857 27.9383 35.8718 27.752 37.5857 27.0414C39.2997 26.3308 40.7643 25.1278 41.7943 23.5846C42.8243 22.0413 43.3734 20.2273 43.3722 18.3719C43.3722 15.8863 42.3848 13.5025 40.6272 11.745C38.8696 9.98739 36.4859 9 34.0003 9ZM34.0003 25.7838C32.5343 25.7838 31.1013 25.3491 29.8824 24.5347C28.6635 23.7203 27.7135 22.5627 27.1525 21.2083C26.5915 19.854 26.4448 18.3637 26.7307 16.9259C27.0167 15.4881 27.7227 14.1674 28.7592 13.1308C29.7958 12.0943 31.1165 11.3883 32.5543 11.1023C33.9921 10.8164 35.4824 10.9631 36.8367 11.5241C38.1911 12.0851 39.3487 13.0351 40.1631 14.254C40.9775 15.4729 41.4122 16.9059 41.4122 18.3719C41.4122 20.3376 40.6313 22.2229 39.2413 23.6129C37.8513 25.0029 35.966 25.7838 34.0003 25.7838Z" fill="url(#paint0_linear_898_3754)"/>
<defs>
<linearGradient id="paint0_linear_898_3754" x1="34.0003" y1="0.458063" x2="34.0003" y2="52.0225" gradientUnits="userSpaceOnUse">
<stop stop-color="white"/>
<stop offset="0.87" stop-color="#EB2B3E"/>
</linearGradient>
</defs>
</svg>
