<svg width="68" height="54" viewBox="0 0 68 54" fill="none" xmlns="http://www.w3.org/2000/svg">
<path d="M55.5896 8.45226C55.5896 8.45226 52.9749 7.68363 45.5328 5.76564C37.6381 3.71835 34.0033 3 34.0033 3C34.0033 3 30.3684 3.71835 22.5097 5.76564C15.0245 7.68363 12.4098 8.45226 12.4098 8.45226C12.4098 8.45226 11.1814 15.9877 14.5648 29.8878C17.2945 41.1155 26.2451 48.3277 34.0033 51C41.7614 48.3277 50.7121 41.1155 53.4418 29.8878C56.818 15.9877 55.5896 8.45226 55.5896 8.45226ZM51.2365 29.428C48.7294 39.7579 40.5259 46.1009 34.0033 48.5863C27.4735 46.1009 19.2772 39.7579 16.7629 29.428C14.3493 19.4142 14.3996 12.8414 14.572 10.3056C15.9728 9.91769 18.6594 9.18497 23.1634 8.02843C29.3699 6.42652 32.9042 5.64352 34.0033 5.41365C35.1024 5.64352 38.6366 6.42652 44.8432 8.02843C49.3256 9.17779 52.0266 9.91051 53.4633 10.2984C53.5998 12.8485 53.6716 19.4142 51.2365 29.428ZM29.1688 24.3277C27.8716 24.3276 26.5993 24.6844 25.4914 25.3591C24.3834 26.0338 23.4825 27.0004 22.8873 28.153C22.2921 29.3056 22.0256 30.5998 22.1169 31.8938C22.2082 33.1878 22.6538 34.4317 23.405 35.4894C24.1561 36.547 25.1839 37.3775 26.3756 37.8899C27.5673 38.4024 28.877 38.577 30.1614 38.3947C31.4457 38.2123 32.6551 37.6801 33.6571 36.8562C34.6592 36.0323 35.4151 34.9486 35.8423 33.7237C36.3164 33.7237 36.7546 33.7237 37.1137 33.7237C39.2688 33.7237 44.3331 33.4939 44.3331 31.3604V28.487C44.3402 28.4225 44.3402 28.3575 44.3331 28.293C44.3402 28.231 44.3402 28.1683 44.3331 28.1063V25.8004C44.3402 25.7359 44.3402 25.6709 44.3331 25.6064C44.3402 25.5443 44.3402 25.4817 44.3331 25.4196V22.8192C44.341 22.7548 44.341 22.6897 44.3331 22.6253C44.3321 22.5174 44.3127 22.4105 44.2757 22.3092C44.2991 22.2128 44.3111 22.1139 44.3116 22.0147V19.1413C44.3186 19.0768 44.3186 19.0118 44.3116 18.9473C44.3186 18.8853 44.3186 18.8226 44.3116 18.7606V16.1601C44.3186 16.0957 44.3186 16.0306 44.3116 15.9662C44.3116 15.8529 44.2896 15.7407 44.2469 15.6357C44.1854 15.4255 44.0502 15.2445 43.8662 15.1257C42.4295 13.8686 37.6956 13.8327 37.0706 13.8327C36.4457 13.8327 31.7477 13.8686 30.2751 15.1257C30.0872 15.2404 29.9509 15.4231 29.8943 15.6357C29.8516 15.7407 29.8297 15.8529 29.8297 15.9662C29.8226 16.0306 29.8226 16.0957 29.8297 16.1601V18.7606C29.8226 18.8226 29.8226 18.8853 29.8297 18.9473C29.8226 19.0118 29.8226 19.0768 29.8297 19.1413V22.0147C29.8301 22.1139 29.8422 22.2128 29.8656 22.3092C29.8286 22.4105 29.8092 22.5174 29.8081 22.6253C29.8003 22.6897 29.8003 22.7548 29.8081 22.8192V24.3637C29.5958 24.3404 29.3824 24.3284 29.1688 24.3277ZM43.5358 31.3316V31.4107C43.4927 32.2008 40.6624 32.8473 37.1425 32.8473C36.7905 32.8473 36.4241 32.8473 36.1224 32.8473C36.218 32.3744 36.2661 31.8931 36.2661 31.4107C36.2661 31.2814 36.2661 31.1592 36.2661 31.0371H37.1497C38.7803 31.0371 42.02 30.9078 43.5429 29.9452L43.5358 31.3316ZM43.5358 28.6163V28.6953C43.4927 29.4855 40.6624 30.132 37.1425 30.132C36.8072 30.132 36.4768 30.132 36.1511 30.132C36.0127 29.3949 35.7582 28.6845 35.3969 28.0272C36.0649 28.0272 36.6684 28.0775 37.1425 28.0775C38.7731 28.0775 42.0129 27.9482 43.5358 26.9856V28.6163ZM43.5358 21.9572V22.0362C43.4927 22.8264 40.6624 23.4729 37.1425 23.4729C33.6226 23.4729 30.7851 22.8336 30.7492 22.0362V20.305C32.2721 21.2676 35.519 21.3969 37.1497 21.3969C38.7803 21.3969 42.02 21.2676 43.5429 20.305L43.5358 21.9572ZM37.1425 14.8743C40.7701 14.8743 43.0257 15.5495 43.3993 15.9662C43.0257 16.39 40.7701 17.0581 37.1425 17.0581C33.5148 17.0581 31.2305 16.39 30.8713 15.9662C31.2305 15.5495 33.4861 14.8743 37.1137 14.8743H37.1425ZM37.1425 18.1069C37.7171 18.1069 41.7543 18.0709 43.5358 17.0796V19.0551C43.4927 19.8453 40.6624 20.4918 37.1425 20.4918C33.6226 20.4918 30.7851 19.8453 30.7492 19.0551V17.0796C32.5019 18.0853 36.5391 18.0853 37.1137 18.0853L37.1425 18.1069ZM37.1425 24.7659C37.7171 24.7659 41.7543 24.73 43.5358 23.7459V25.7142C43.4927 26.5043 40.6624 27.1509 37.1425 27.1509C36.302 27.1509 35.4975 27.1509 34.7647 27.0431C33.7607 25.7565 32.3416 24.8578 30.7492 24.5001V23.7387C32.5019 24.73 36.5391 24.7659 37.1137 24.7659H37.1425ZM35.361 31.3963C35.3681 32.6156 35.0133 33.8096 34.3417 34.8272C33.67 35.8449 32.7116 36.6404 31.5878 37.1133C30.4639 37.5861 29.225 37.715 28.0278 37.4835C26.8307 37.2521 25.7291 36.6708 24.8624 35.8131C23.9957 34.9555 23.4028 33.8601 23.1589 32.6654C22.9149 31.4708 23.0307 30.2306 23.4917 29.1018C23.9528 27.973 24.7382 27.0063 25.7488 26.324C26.7593 25.6417 27.9495 25.2745 29.1688 25.2688C30.7967 25.2706 32.3579 25.9157 33.5123 27.0634C34.6667 28.2111 35.3209 29.7685 35.3322 31.3963H35.361ZM24.4062 31.3963C24.4076 32.3379 24.6881 33.258 25.2123 34.0403C25.7365 34.8226 26.4808 35.4319 27.3512 35.7913C28.2216 36.1506 29.179 36.2439 30.1024 36.0594C31.0257 35.8748 31.8737 35.4206 32.539 34.7543C33.2044 34.0879 33.6573 33.2393 33.8405 32.3156C34.0236 31.3919 33.9289 30.4347 33.5682 29.5649C33.2075 28.695 32.5971 27.9516 31.814 27.4286C31.031 26.9056 30.1105 26.6265 29.1688 26.6265C27.905 26.6284 26.6936 27.1317 25.8007 28.026C24.9077 28.9204 24.4062 30.1325 24.4062 31.3963ZM33.328 31.3963C33.328 32.2189 33.0841 33.0231 32.6271 33.707C32.1701 34.391 31.5205 34.9241 30.7605 35.2389C30.0005 35.5537 29.1642 35.6361 28.3574 35.4756C27.5506 35.3151 26.8095 34.919 26.2278 34.3373C25.6461 33.7556 25.25 33.0145 25.0895 32.2077C24.929 31.4009 25.0114 30.5646 25.3262 29.8046C25.641 29.0446 26.1741 28.395 26.8581 27.938C27.542 27.481 28.3462 27.2371 29.1688 27.2371C30.2713 27.239 31.3281 27.6778 32.1077 28.4574C32.8873 29.237 33.3261 30.2938 33.328 31.3963Z" fill="url(#paint0_linear_898_3763)"/>
<defs>
<linearGradient id="paint0_linear_898_3763" x1="34.0033" y1="-4.36307" x2="34.0033" y2="56.8689" gradientUnits="userSpaceOnUse">
<stop stop-color="white"/>
<stop offset="0.31" stop-color="#F7AAB1"/>
<stop offset="0.58" stop-color="#F16573"/>
<stop offset="0.77" stop-color="#ED3B4D"/>
<stop offset="0.87" stop-color="#EB2B3E"/>
</linearGradient>
</defs>
</svg>
