<svg width="68" height="54" viewBox="0 0 68 54" fill="none" xmlns="http://www.w3.org/2000/svg">
<path d="M61.9549 22.154L58.1199 18.2701C57.9928 18.1474 57.8239 18.0789 57.6483 18.0789C57.4726 18.0789 57.3037 18.1474 57.1766 18.2701L55.1668 20.3125C55.0456 20.4412 54.978 20.6123 54.978 20.7901C54.978 20.968 55.0456 21.1391 55.1668 21.2678L58.9949 25.1448C59.1221 25.2675 59.291 25.336 59.4666 25.336C59.6423 25.336 59.8112 25.2675 59.9383 25.1448L61.9891 23.1094C62.1058 22.9762 62.1673 22.8027 62.161 22.6247C62.1546 22.4468 62.0808 22.2782 61.9549 22.154ZM32.0613 45.0001H7.7732C7.26012 45.0001 6.76805 44.7937 6.40525 44.4263C6.04244 44.0589 5.83862 43.5605 5.83862 43.0409C5.84043 42.5225 6.04505 42.0259 6.40766 41.66C6.77026 41.2941 7.2613 41.0886 7.7732 41.0886H32.0613C32.5732 41.0886 33.0642 41.2941 33.4269 41.66C33.7895 42.0259 33.9941 42.5225 33.9959 43.0409C33.9959 43.5605 33.7921 44.0589 33.4293 44.4263C33.0665 44.7937 32.5744 45.0001 32.0613 45.0001ZM53.9363 10.5025C53.9364 10.1052 53.781 9.72414 53.5043 9.4426C53.2276 9.16106 52.852 9.00197 52.4598 9.00014H7.34253C7.14601 8.99739 6.95091 9.03422 6.76856 9.10848C6.58621 9.18275 6.42025 9.29297 6.28033 9.43275C6.1404 9.57253 6.0293 9.73907 5.95347 9.9227C5.87764 10.1063 5.8386 10.3034 5.83862 10.5025V35.9032C5.8413 36.1005 5.88232 36.2953 5.95935 36.4766C6.03638 36.6578 6.14791 36.8219 6.28756 36.9595C6.42722 37.097 6.59226 37.2054 6.77328 37.2784C6.95429 37.3514 7.14772 37.3875 7.34253 37.3848H33.6609C33.7908 37.2048 53.9432 16.7609 53.9432 16.7609L53.9363 10.5025ZM28.1922 29.8871H9.98121C9.71794 29.9029 9.45425 29.8641 9.20634 29.773C8.95842 29.6819 8.73152 29.5404 8.53957 29.3572C8.34762 29.1741 8.19468 28.9531 8.09015 28.7079C7.98561 28.4627 7.93169 28.1984 7.93169 27.9313C7.93169 27.6642 7.98561 27.3999 8.09015 27.1547C8.19468 26.9095 8.34762 26.6885 8.53957 26.5053C8.73152 26.3222 8.95842 26.1807 9.20634 26.0896C9.45425 25.9985 9.71794 25.9597 9.98121 25.9755H28.199C28.6913 26.0052 29.1538 26.2242 29.4921 26.5877C29.8303 26.9512 30.0186 27.4318 30.0186 27.9313C30.0186 28.4308 29.8303 28.9114 29.4921 29.2749C29.1538 29.6384 28.6913 29.8574 28.199 29.8871H28.1922ZM35.3699 23.1786H9.98121C9.71794 23.1945 9.45425 23.1557 9.20634 23.0646C8.95842 22.9734 8.73152 22.832 8.53957 22.6488C8.34762 22.4656 8.19468 22.2446 8.09015 21.9994C7.98561 21.7542 7.93169 21.4899 7.93169 21.2228C7.93169 20.9557 7.98561 20.6915 8.09015 20.4463C8.19468 20.201 8.34762 19.9801 8.53957 19.7969C8.73152 19.6137 8.95842 19.4722 9.20634 19.3811C9.45425 19.29 9.71794 19.2512 9.98121 19.2671H35.3767C35.8691 19.2967 36.3316 19.5157 36.6698 19.8792C37.008 20.2428 37.1964 20.7234 37.1964 21.2228C37.1964 21.7223 37.008 22.2029 36.6698 22.5664C36.3316 22.93 35.8691 23.1489 35.3767 23.1786H35.3699ZM44.202 16.4701H9.98121C9.71794 16.486 9.45425 16.4472 9.20634 16.3561C8.95842 16.265 8.73152 16.1235 8.53957 15.9403C8.34762 15.7572 8.19468 15.5362 8.09015 15.291C7.98561 15.0457 7.93169 14.7815 7.93169 14.5144C7.93169 14.2473 7.98561 13.983 8.09015 13.7378C8.19468 13.4926 8.34762 13.2716 8.53957 13.0884C8.73152 12.9053 8.95842 12.7638 9.20634 12.6727C9.45425 12.5815 9.71794 12.5427 9.98121 12.5586H44.2088C44.7011 12.5883 45.1636 12.8073 45.5019 13.1708C45.8401 13.5343 46.0284 14.0149 46.0284 14.5144C46.0284 15.0138 45.8401 15.4945 45.5019 15.858C45.1636 16.2215 44.7011 16.4405 44.2088 16.4701H44.202ZM42.5818 41.7878C42.703 41.9166 42.7706 42.0876 42.7706 42.2655C42.7706 42.4434 42.703 42.6145 42.5818 42.7432L41.2146 44.1278C41.1102 44.2392 40.9692 44.3082 40.8182 44.3217L36.6687 44.8063C36.5739 44.815 36.4784 44.8035 36.3882 44.7726C36.298 44.7417 36.2152 44.6921 36.1451 44.6269C36.0749 44.5618 36.019 44.4825 35.9809 44.3941C35.9427 44.3058 35.9232 44.2104 35.9236 44.114L36.2586 39.7317C36.2721 39.5761 36.3371 39.4297 36.4432 39.3163L37.8103 37.9317C37.9371 37.811 38.1046 37.7437 38.2786 37.7437C38.4526 37.7437 38.6201 37.811 38.7469 37.9317L42.5818 41.7878ZM56.6776 28.4678L45.9451 39.3371C45.818 39.4598 45.6491 39.5283 45.4734 39.5283C45.2978 39.5283 45.1289 39.4598 45.0018 39.3371L41.1668 35.4532C41.0456 35.3245 40.978 35.1534 40.978 34.9755C40.978 34.7976 41.0456 34.6266 41.1668 34.4978L51.8992 23.6286C52.0264 23.5059 52.1953 23.4374 52.3709 23.4374C52.5466 23.4374 52.7155 23.5059 52.8426 23.6286L56.6776 27.5125C56.7988 27.6412 56.8664 27.8123 56.8664 27.9901C56.8664 28.168 56.7988 28.3391 56.6776 28.4678Z" fill="url(#paint0_linear_898_3745)"/>
<defs>
<linearGradient id="paint0_linear_898_3745" x1="33.9959" y1="2.07707" x2="33.9959" y2="45.2701" gradientUnits="userSpaceOnUse">
<stop stop-color="white"/>
<stop offset="0.31" stop-color="#F7AAB1"/>
<stop offset="0.58" stop-color="#F16573"/>
<stop offset="0.77" stop-color="#ED3B4D"/>
<stop offset="0.87" stop-color="#EB2B3E"/>
</linearGradient>
</defs>
</svg>
